<?xml version="1.0" encoding="UTF-8" standalone="no"?>
<!DOCTYPE svg PUBLIC "-//W3C//DTD SVG 1.1//EN"
 "http://www.w3.org/Graphics/SVG/1.1/DTD/svg11.dtd">
<!-- Generated by graphviz version 2.50.0 (20211204.2007)
 -->
<!-- Title: classes_p4&#45;chess Pages: 1 -->
<svg width="6110pt" height="740pt"
 viewBox="0.00 0.00 6110.00 740.00" xmlns="http://www.w3.org/2000/svg" xmlns:xlink="http://www.w3.org/1999/xlink">
<g id="graph0" class="graph" transform="scale(1 1) rotate(0) translate(4 736)">
<title>classes_p4&#45;chess</title>
<polygon fill="white" stroke="transparent" points="-4,4 -4,-736 6106,-736 6106,4 -4,4"/>
<!-- controllers.appcontroller.AppController -->
<g id="node1" class="node">
<title>controllers.appcontroller.AppController</title>
<polygon fill="aliceblue" stroke="aliceblue" points="0,-255.5 0,-354.5 239,-354.5 239,-255.5 0,-255.5"/>
<text text-anchor="middle" x="119.5" y="-339.3" font-family="Times New Roman,serif" font-size="14.00">controllers.appcontroller.AppController</text>
<polyline fill="none" stroke="aliceblue" points="0,-331.5 239,-331.5 "/>
<text text-anchor="start" x="8" y="-316.3" font-family="Times New Roman,serif" font-size="14.00">controller : NoneType</text>
<text text-anchor="start" x="8" y="-301.3" font-family="Times New Roman,serif" font-size="14.00">players_view : NoneType</text>
<text text-anchor="start" x="8" y="-286.3" font-family="Times New Roman,serif" font-size="14.00">tournament_view : NoneType</text>
<polyline fill="none" stroke="aliceblue" points="0,-278.5 239,-278.5 "/>
<text text-anchor="start" x="8" y="-263.3" font-family="Times New Roman,serif" font-size="14.00">run()</text>
</g>
<!-- controllers.appcontroller.MenuController -->
<g id="node2" class="node">
<title>controllers.appcontroller.MenuController</title>
<polygon fill="aliceblue" stroke="aliceblue" points="257,-270.5 257,-339.5 502,-339.5 502,-270.5 257,-270.5"/>
<text text-anchor="middle" x="379.5" y="-324.3" font-family="Times New Roman,serif" font-size="14.00">controllers.appcontroller.MenuController</text>
<polyline fill="none" stroke="aliceblue" points="257,-316.5 502,-316.5 "/>
<text text-anchor="start" x="265" y="-301.3" font-family="Times New Roman,serif" font-size="14.00">menu : NoneType</text>
<polyline fill="none" stroke="aliceblue" points="257,-293.5 502,-293.5 "/>
<text text-anchor="start" x="265" y="-278.3" font-family="Times New Roman,serif" font-size="14.00">run()</text>
</g>
<!-- controllers.appcontroller.MenuExitController -->
<g id="node3" class="node">
<title>controllers.appcontroller.MenuExitController</title>
<polygon fill="aliceblue" stroke="aliceblue" points="520,-270.5 520,-339.5 787,-339.5 787,-270.5 520,-270.5"/>
<text text-anchor="middle" x="653.5" y="-324.3" font-family="Times New Roman,serif" font-size="14.00">controllers.appcontroller.MenuExitController</text>
<polyline fill="none" stroke="aliceblue" points="520,-316.5 787,-316.5 "/>
<text text-anchor="start" x="528" y="-301.3" font-family="Times New Roman,serif" font-size="14.00">menu : NoneType</text>
<polyline fill="none" stroke="aliceblue" points="520,-293.5 787,-293.5 "/>
<text text-anchor="start" x="528" y="-278.3" font-family="Times New Roman,serif" font-size="14.00">run()</text>
</g>
<!-- controllers.appcontroller.MenuPlayerController -->
<g id="node4" class="node">
<title>controllers.appcontroller.MenuPlayerController</title>
<polygon fill="aliceblue" stroke="aliceblue" points="805.5,-263 805.5,-347 1085.5,-347 1085.5,-263 805.5,-263"/>
<text text-anchor="middle" x="945.5" y="-331.8" font-family="Times New Roman,serif" font-size="14.00">controllers.appcontroller.MenuPlayerController</text>
<polyline fill="none" stroke="aliceblue" points="805.5,-324 1085.5,-324 "/>
<text text-anchor="start" x="813.5" y="-308.8" font-family="Times New Roman,serif" font-size="14.00">menu : NoneType</text>
<polyline fill="none" stroke="aliceblue" points="805.5,-301 1085.5,-301 "/>
<text text-anchor="start" x="813.5" y="-285.8" font-family="Times New Roman,serif" font-size="14.00">init_player()</text>
<text text-anchor="start" x="813.5" y="-270.8" font-family="Times New Roman,serif" font-size="14.00">run()</text>
</g>
<!-- controllers.appcontroller.MenuReportController -->
<g id="node5" class="node">
<title>controllers.appcontroller.MenuReportController</title>
<polygon fill="aliceblue" stroke="aliceblue" points="1103.5,-210.5 1103.5,-399.5 1387.5,-399.5 1387.5,-210.5 1103.5,-210.5"/>
<text text-anchor="middle" x="1245.5" y="-384.3" font-family="Times New Roman,serif" font-size="14.00">controllers.appcontroller.MenuReportController</text>
<polyline fill="none" stroke="aliceblue" points="1103.5,-376.5 1387.5,-376.5 "/>
<text text-anchor="start" x="1111.5" y="-361.3" font-family="Times New Roman,serif" font-size="14.00">menu : NoneType</text>
<polyline fill="none" stroke="aliceblue" points="1103.5,-353.5 1387.5,-353.5 "/>
<text text-anchor="start" x="1111.5" y="-338.3" font-family="Times New Roman,serif" font-size="14.00">init_player()</text>
<text text-anchor="start" x="1111.5" y="-323.3" font-family="Times New Roman,serif" font-size="14.00">init_tournament()</text>
<text text-anchor="start" x="1111.5" y="-308.3" font-family="Times New Roman,serif" font-size="14.00">run()</text>
<text text-anchor="start" x="1111.5" y="-293.3" font-family="Times New Roman,serif" font-size="14.00">show_matchs_tournament()</text>
<text text-anchor="start" x="1111.5" y="-278.3" font-family="Times New Roman,serif" font-size="14.00">show_players_rank_tournament()</text>
<text text-anchor="start" x="1111.5" y="-263.3" font-family="Times New Roman,serif" font-size="14.00">show_players_results_tournament()</text>
<text text-anchor="start" x="1111.5" y="-248.3" font-family="Times New Roman,serif" font-size="14.00">show_players_tournament()</text>
<text text-anchor="start" x="1111.5" y="-233.3" font-family="Times New Roman,serif" font-size="14.00">show_rounds_tournament()</text>
<text text-anchor="start" x="1111.5" y="-218.3" font-family="Times New Roman,serif" font-size="14.00">show_tournaments()</text>
</g>
<!-- controllers.appcontroller.MenuTournamentController -->
<g id="node6" class="node">
<title>controllers.appcontroller.MenuTournamentController</title>
<polygon fill="aliceblue" stroke="aliceblue" points="1406,-203 1406,-407 1719,-407 1719,-203 1406,-203"/>
<text text-anchor="middle" x="1562.5" y="-391.8" font-family="Times New Roman,serif" font-size="14.00">controllers.appcontroller.MenuTournamentController</text>
<polyline fill="none" stroke="aliceblue" points="1406,-384 1719,-384 "/>
<text text-anchor="start" x="1414" y="-368.8" font-family="Times New Roman,serif" font-size="14.00">menu : NoneType</text>
<polyline fill="none" stroke="aliceblue" points="1406,-361 1719,-361 "/>
<text text-anchor="start" x="1414" y="-345.8" font-family="Times New Roman,serif" font-size="14.00">add_player_to_one_tournament()</text>
<text text-anchor="start" x="1414" y="-330.8" font-family="Times New Roman,serif" font-size="14.00">close_tournament()</text>
<text text-anchor="start" x="1414" y="-315.8" font-family="Times New Roman,serif" font-size="14.00">close_tournament_round()</text>
<text text-anchor="start" x="1414" y="-300.8" font-family="Times New Roman,serif" font-size="14.00">create_next_round_and_match()</text>
<text text-anchor="start" x="1414" y="-285.8" font-family="Times New Roman,serif" font-size="14.00">init_player()</text>
<text text-anchor="start" x="1414" y="-270.8" font-family="Times New Roman,serif" font-size="14.00">init_tournament()</text>
<text text-anchor="start" x="1414" y="-255.8" font-family="Times New Roman,serif" font-size="14.00">open_tournament_create_first_round()</text>
<text text-anchor="start" x="1414" y="-240.8" font-family="Times New Roman,serif" font-size="14.00">register_matchs_results()</text>
<text text-anchor="start" x="1414" y="-225.8" font-family="Times New Roman,serif" font-size="14.00">run()</text>
<text text-anchor="start" x="1414" y="-210.8" font-family="Times New Roman,serif" font-size="14.00">show_the_tournament()</text>
</g>
<!-- models.player.Player -->
<g id="node7" class="node">
<title>models.player.Player</title>
<polygon fill="antiquewhite" stroke="antiquewhite" points="1737,-165.5 1737,-444.5 1952,-444.5 1952,-165.5 1737,-165.5"/>
<text text-anchor="middle" x="1844.5" y="-429.3" font-family="Times New Roman,serif" font-size="14.00">models.player.Player</text>
<polyline fill="none" stroke="antiquewhite" points="1737,-421.5 1952,-421.5 "/>
<text text-anchor="start" x="1745" y="-406.3" font-family="Times New Roman,serif" font-size="14.00">__birthdate</text>
<text text-anchor="start" x="1745" y="-391.3" font-family="Times New Roman,serif" font-size="14.00">__firstname</text>
<text text-anchor="start" x="1745" y="-376.3" font-family="Times New Roman,serif" font-size="14.00">__gender</text>
<text text-anchor="start" x="1745" y="-361.3" font-family="Times New Roman,serif" font-size="14.00">__initial_ranking</text>
<text text-anchor="start" x="1745" y="-346.3" font-family="Times New Roman,serif" font-size="14.00">__name</text>
<text text-anchor="start" x="1745" y="-331.3" font-family="Times New Roman,serif" font-size="14.00">__player_id : int</text>
<text text-anchor="start" x="1745" y="-316.3" font-family="Times New Roman,serif" font-size="14.00">__score : float</text>
<text text-anchor="start" x="1745" y="-301.3" font-family="Times New Roman,serif" font-size="14.00">_formated_player : str</text>
<polyline fill="none" stroke="antiquewhite" points="1737,-293.5 1952,-293.5 "/>
<text text-anchor="start" x="1745" y="-278.3" font-family="Times New Roman,serif" font-size="14.00">get_name()</text>
<text text-anchor="start" x="1745" y="-263.3" font-family="Times New Roman,serif" font-size="14.00">get_player_id()</text>
<text text-anchor="start" x="1745" y="-248.3" font-family="Times New Roman,serif" font-size="14.00">get_ranking()</text>
<text text-anchor="start" x="1745" y="-233.3" font-family="Times New Roman,serif" font-size="14.00">get_score()</text>
<text text-anchor="start" x="1745" y="-218.3" font-family="Times New Roman,serif" font-size="14.00">save_player(new_player, player_id)</text>
<text text-anchor="start" x="1745" y="-203.3" font-family="Times New Roman,serif" font-size="14.00">serialize_player()</text>
<text text-anchor="start" x="1745" y="-188.3" font-family="Times New Roman,serif" font-size="14.00">set_ranking(ranking)</text>
<text text-anchor="start" x="1745" y="-173.3" font-family="Times New Roman,serif" font-size="14.00">set_score(score)</text>
</g>
<!-- models.player.Players -->
<g id="node8" class="node">
<title>models.player.Players</title>
<polygon fill="antiquewhite" stroke="antiquewhite" points="1970,-210.5 1970,-399.5 2205,-399.5 2205,-210.5 1970,-210.5"/>
<text text-anchor="middle" x="2087.5" y="-384.3" font-family="Times New Roman,serif" font-size="14.00">models.player.Players</text>
<polyline fill="none" stroke="antiquewhite" points="1970,-376.5 2205,-376.5 "/>
<text text-anchor="start" x="1978" y="-361.3" font-family="Times New Roman,serif" font-size="14.00">__players_known : list</text>
<polyline fill="none" stroke="antiquewhite" points="1970,-353.5 2205,-353.5 "/>
<text text-anchor="start" x="1978" y="-338.3" font-family="Times New Roman,serif" font-size="14.00">add_player_to_list(new_player: Player)</text>
<text text-anchor="start" x="1978" y="-323.3" font-family="Times New Roman,serif" font-size="14.00">get_list_of_players()</text>
<text text-anchor="start" x="1978" y="-308.3" font-family="Times New Roman,serif" font-size="14.00">get_number_of_players()</text>
<text text-anchor="start" x="1978" y="-293.3" font-family="Times New Roman,serif" font-size="14.00">get_player_by_id(player_id)</text>
<text text-anchor="start" x="1978" y="-278.3" font-family="Times New Roman,serif" font-size="14.00">get_players_by_name()</text>
<text text-anchor="start" x="1978" y="-263.3" font-family="Times New Roman,serif" font-size="14.00">get_players_by_rank()</text>
<text text-anchor="start" x="1978" y="-248.3" font-family="Times New Roman,serif" font-size="14.00">get_players_by_score()</text>
<text text-anchor="start" x="1978" y="-233.3" font-family="Times New Roman,serif" font-size="14.00">load_players()</text>
<text text-anchor="start" x="1978" y="-218.3" font-family="Times New Roman,serif" font-size="14.00">serialize_players()</text>
</g>
<!-- models.tournament.Match -->
<g id="node9" class="node">
<title>models.tournament.Match</title>
<polygon fill="antiquewhite" stroke="antiquewhite" points="2223.5,-188 2223.5,-422 2509.5,-422 2509.5,-188 2223.5,-188"/>
<text text-anchor="middle" x="2366.5" y="-406.8" font-family="Times New Roman,serif" font-size="14.00">models.tournament.Match</text>
<polyline fill="none" stroke="antiquewhite" points="2223.5,-399 2509.5,-399 "/>
<text text-anchor="start" x="2231.5" y="-383.8" font-family="Times New Roman,serif" font-size="14.00">_formated_match : tuple</text>
<text text-anchor="start" x="2231.5" y="-368.8" font-family="Times New Roman,serif" font-size="14.00">_player1_id</text>
<text text-anchor="start" x="2231.5" y="-353.8" font-family="Times New Roman,serif" font-size="14.00">_player2_id</text>
<text text-anchor="start" x="2231.5" y="-338.8" font-family="Times New Roman,serif" font-size="14.00">_score_player1 : float</text>
<text text-anchor="start" x="2231.5" y="-323.8" font-family="Times New Roman,serif" font-size="14.00">_score_player2 : float</text>
<polyline fill="none" stroke="antiquewhite" points="2223.5,-316 2509.5,-316 "/>
<text text-anchor="start" x="2231.5" y="-300.8" font-family="Times New Roman,serif" font-size="14.00">get_match()</text>
<text text-anchor="start" x="2231.5" y="-285.8" font-family="Times New Roman,serif" font-size="14.00">get_match_player1()</text>
<text text-anchor="start" x="2231.5" y="-270.8" font-family="Times New Roman,serif" font-size="14.00">get_match_player2()</text>
<text text-anchor="start" x="2231.5" y="-255.8" font-family="Times New Roman,serif" font-size="14.00">get_match_score1()</text>
<text text-anchor="start" x="2231.5" y="-240.8" font-family="Times New Roman,serif" font-size="14.00">get_match_score2()</text>
<text text-anchor="start" x="2231.5" y="-225.8" font-family="Times New Roman,serif" font-size="14.00">is_match_closed()</text>
<text text-anchor="start" x="2231.5" y="-210.8" font-family="Times New Roman,serif" font-size="14.00">serialize_match()</text>
<text text-anchor="start" x="2231.5" y="-195.8" font-family="Times New Roman,serif" font-size="14.00">set_match_score(score_player1, score_player2)</text>
</g>
<!-- models.tournament.Round -->
<g id="node10" class="node">
<title>models.tournament.Round</title>
<polygon fill="antiquewhite" stroke="antiquewhite" points="2528,-165.5 2528,-444.5 2751,-444.5 2751,-165.5 2528,-165.5"/>
<text text-anchor="middle" x="2639.5" y="-429.3" font-family="Times New Roman,serif" font-size="14.00">models.tournament.Round</text>
<polyline fill="none" stroke="antiquewhite" points="2528,-421.5 2751,-421.5 "/>
<text text-anchor="start" x="2536" y="-406.3" font-family="Times New Roman,serif" font-size="14.00">_matchs : list</text>
<text text-anchor="start" x="2536" y="-391.3" font-family="Times New Roman,serif" font-size="14.00">_round_end_date : NoneType</text>
<text text-anchor="start" x="2536" y="-376.3" font-family="Times New Roman,serif" font-size="14.00">_round_end_time : NoneType</text>
<text text-anchor="start" x="2536" y="-361.3" font-family="Times New Roman,serif" font-size="14.00">_round_name</text>
<text text-anchor="start" x="2536" y="-346.3" font-family="Times New Roman,serif" font-size="14.00">_round_start_date</text>
<text text-anchor="start" x="2536" y="-331.3" font-family="Times New Roman,serif" font-size="14.00">_round_start_time</text>
<text text-anchor="start" x="2536" y="-316.3" font-family="Times New Roman,serif" font-size="14.00">_round_status</text>
<polyline fill="none" stroke="antiquewhite" points="2528,-308.5 2751,-308.5 "/>
<text text-anchor="start" x="2536" y="-293.3" font-family="Times New Roman,serif" font-size="14.00">add_match(new_match)</text>
<text text-anchor="start" x="2536" y="-278.3" font-family="Times New Roman,serif" font-size="14.00">close_round()</text>
<text text-anchor="start" x="2536" y="-263.3" font-family="Times New Roman,serif" font-size="14.00">get_matchs()</text>
<text text-anchor="start" x="2536" y="-248.3" font-family="Times New Roman,serif" font-size="14.00">get_player_score_opponent_round()</text>
<text text-anchor="start" x="2536" y="-233.3" font-family="Times New Roman,serif" font-size="14.00">get_round_name()</text>
<text text-anchor="start" x="2536" y="-218.3" font-family="Times New Roman,serif" font-size="14.00">get_round_status()</text>
<text text-anchor="start" x="2536" y="-203.3" font-family="Times New Roman,serif" font-size="14.00">remove_matchs()</text>
<text text-anchor="start" x="2536" y="-188.3" font-family="Times New Roman,serif" font-size="14.00">serialize_datetime(date_time_object)</text>
<text text-anchor="start" x="2536" y="-173.3" font-family="Times New Roman,serif" font-size="14.00">serialize_round()</text>
</g>
<!-- models.tournament.Tournament -->
<g id="node11" class="node">
<title>models.tournament.Tournament</title>
<polygon fill="antiquewhite" stroke="antiquewhite" points="2769.5,-0.5 2769.5,-609.5 3069.5,-609.5 3069.5,-0.5 2769.5,-0.5"/>
<text text-anchor="middle" x="2919.5" y="-594.3" font-family="Times New Roman,serif" font-size="14.00">models.tournament.Tournament</text>
<polyline fill="none" stroke="antiquewhite" points="2769.5,-586.5 3069.5,-586.5 "/>
<text text-anchor="start" x="2777.5" y="-571.3" font-family="Times New Roman,serif" font-size="14.00">__tournament_id : int</text>
<text text-anchor="start" x="2777.5" y="-556.3" font-family="Times New Roman,serif" font-size="14.00">_event_closing_date : datetime, date</text>
<text text-anchor="start" x="2777.5" y="-541.3" font-family="Times New Roman,serif" font-size="14.00">_event_description</text>
<text text-anchor="start" x="2777.5" y="-526.3" font-family="Times New Roman,serif" font-size="14.00">_event_location</text>
<text text-anchor="start" x="2777.5" y="-511.3" font-family="Times New Roman,serif" font-size="14.00">_event_name</text>
<text text-anchor="start" x="2777.5" y="-496.3" font-family="Times New Roman,serif" font-size="14.00">_event_start_date : datetime</text>
<text text-anchor="start" x="2777.5" y="-481.3" font-family="Times New Roman,serif" font-size="14.00">_formated_tournament</text>
<text text-anchor="start" x="2777.5" y="-466.3" font-family="Times New Roman,serif" font-size="14.00">_players : list</text>
<text text-anchor="start" x="2777.5" y="-451.3" font-family="Times New Roman,serif" font-size="14.00">_round_number : int</text>
<text text-anchor="start" x="2777.5" y="-436.3" font-family="Times New Roman,serif" font-size="14.00">_rounds : list</text>
<text text-anchor="start" x="2777.5" y="-421.3" font-family="Times New Roman,serif" font-size="14.00">_score_updated : bool</text>
<text text-anchor="start" x="2777.5" y="-406.3" font-family="Times New Roman,serif" font-size="14.00">_time_control</text>
<polyline fill="none" stroke="antiquewhite" points="2769.5,-398.5 3069.5,-398.5 "/>
<text text-anchor="start" x="2777.5" y="-383.3" font-family="Times New Roman,serif" font-size="14.00">add_player_to_tournament(new_player: int)</text>
<text text-anchor="start" x="2777.5" y="-368.3" font-family="Times New Roman,serif" font-size="14.00">add_players_to_tournament(new_player: list)</text>
<text text-anchor="start" x="2777.5" y="-353.3" font-family="Times New Roman,serif" font-size="14.00">add_round(new_round: Round)</text>
<text text-anchor="start" x="2777.5" y="-338.3" font-family="Times New Roman,serif" font-size="14.00">close_tournament()</text>
<text text-anchor="start" x="2777.5" y="-323.3" font-family="Times New Roman,serif" font-size="14.00">get_all_players_scores_opponents()</text>
<text text-anchor="start" x="2777.5" y="-308.3" font-family="Times New Roman,serif" font-size="14.00">get_tournament_id()</text>
<text text-anchor="start" x="2777.5" y="-293.3" font-family="Times New Roman,serif" font-size="14.00">get_tournament_last_closed_round()</text>
<text text-anchor="start" x="2777.5" y="-278.3" font-family="Times New Roman,serif" font-size="14.00">get_tournament_players()</text>
<text text-anchor="start" x="2777.5" y="-263.3" font-family="Times New Roman,serif" font-size="14.00">get_tournament_players_by_name()</text>
<text text-anchor="start" x="2777.5" y="-248.3" font-family="Times New Roman,serif" font-size="14.00">get_tournament_players_by_rank()</text>
<text text-anchor="start" x="2777.5" y="-233.3" font-family="Times New Roman,serif" font-size="14.00">get_tournament_players_by_score()</text>
<text text-anchor="start" x="2777.5" y="-218.3" font-family="Times New Roman,serif" font-size="14.00">get_tournament_round_number()</text>
<text text-anchor="start" x="2777.5" y="-203.3" font-family="Times New Roman,serif" font-size="14.00">get_tournament_rounds()</text>
<text text-anchor="start" x="2777.5" y="-188.3" font-family="Times New Roman,serif" font-size="14.00">get_tournament_rounds_matchs()</text>
<text text-anchor="start" x="2777.5" y="-173.3" font-family="Times New Roman,serif" font-size="14.00">get_tournament_score_status()</text>
<text text-anchor="start" x="2777.5" y="-158.3" font-family="Times New Roman,serif" font-size="14.00">get_tournament_to_close_round()</text>
<text text-anchor="start" x="2777.5" y="-143.3" font-family="Times New Roman,serif" font-size="14.00">get_tournament_to_finish_round()</text>
<text text-anchor="start" x="2777.5" y="-128.3" font-family="Times New Roman,serif" font-size="14.00">load_round(serialized_rounds)</text>
<text text-anchor="start" x="2777.5" y="-113.3" font-family="Times New Roman,serif" font-size="14.00">load_tournament(tournament_id)</text>
<text text-anchor="start" x="2777.5" y="-98.3" font-family="Times New Roman,serif" font-size="14.00">merge_add_dict(dict1, dict2, type)</text>
<text text-anchor="start" x="2777.5" y="-83.3" font-family="Times New Roman,serif" font-size="14.00">pair_players_first_time()</text>
<text text-anchor="start" x="2777.5" y="-68.3" font-family="Times New Roman,serif" font-size="14.00">pair_players_next_time()</text>
<text text-anchor="start" x="2777.5" y="-53.3" font-family="Times New Roman,serif" font-size="14.00">save_tournament(new_tournament, tournament_id)</text>
<text text-anchor="start" x="2777.5" y="-38.3" font-family="Times New Roman,serif" font-size="14.00">serialize_tournament()</text>
<text text-anchor="start" x="2777.5" y="-23.3" font-family="Times New Roman,serif" font-size="14.00">set_tournament_score_status()</text>
<text text-anchor="start" x="2777.5" y="-8.3" font-family="Times New Roman,serif" font-size="14.00">update_players_score()</text>
</g>
<!-- models.tournament.Tournaments -->
<g id="node12" class="node">
<title>models.tournament.Tournaments</title>
<polygon fill="antiquewhite" stroke="antiquewhite" points="3087.5,-255.5 3087.5,-354.5 3319.5,-354.5 3319.5,-255.5 3087.5,-255.5"/>
<text text-anchor="middle" x="3203.5" y="-339.3" font-family="Times New Roman,serif" font-size="14.00">models.tournament.Tournaments</text>
<polyline fill="none" stroke="antiquewhite" points="3087.5,-331.5 3319.5,-331.5 "/>
<text text-anchor="start" x="3095.5" y="-316.3" font-family="Times New Roman,serif" font-size="14.00">_tournaments : list</text>
<polyline fill="none" stroke="antiquewhite" points="3087.5,-308.5 3319.5,-308.5 "/>
<text text-anchor="start" x="3095.5" y="-293.3" font-family="Times New Roman,serif" font-size="14.00">get_list_of_tournaments()</text>
<text text-anchor="start" x="3095.5" y="-278.3" font-family="Times New Roman,serif" font-size="14.00">get_tournament_by_id(tournament_id)</text>
<text text-anchor="start" x="3095.5" y="-263.3" font-family="Times New Roman,serif" font-size="14.00">load_tournaments()</text>
</g>
<!-- views.appview.MatchView -->
<g id="node13" class="node">
<title>views.appview.MatchView</title>
<polygon fill="aquamarine" stroke="aquamarine" points="3338,-270.5 3338,-339.5 3565,-339.5 3565,-270.5 3338,-270.5"/>
<text text-anchor="middle" x="3451.5" y="-324.3" font-family="Times New Roman,serif" font-size="14.00">views.appview.MatchView</text>
<polyline fill="none" stroke="aquamarine" points="3338,-316.5 3565,-316.5 "/>
<text text-anchor="start" x="3346" y="-301.3" font-family="Times New Roman,serif" font-size="14.00">play_once : bool</text>
<polyline fill="none" stroke="aquamarine" points="3338,-293.5 3565,-293.5 "/>
<text text-anchor="start" x="3346" y="-278.3" font-family="Times New Roman,serif" font-size="14.00">prompt_for_match_result(match_list)</text>
</g>
<!-- views.appview.View -->
<g id="node21" class="node">
<title>views.appview.View</title>
<polygon fill="aquamarine" stroke="aquamarine" points="4195,-646.5 4195,-731.5 4576,-731.5 4576,-646.5 4195,-646.5"/>
<text text-anchor="middle" x="4385.5" y="-716.3" font-family="Times New Roman,serif" font-size="14.00">views.appview.View</text>
<polyline fill="none" stroke="aquamarine" points="4195,-708.5 4576,-708.5 "/>
<polyline fill="none" stroke="aquamarine" points="4195,-684.5 4576,-684.5 "/>
<text text-anchor="start" x="4203" y="-669.3" font-family="Times New Roman,serif" font-size="14.00">prompt(text, type_response, default_response, closed_response)</text>
<text text-anchor="start" x="4203" y="-654.3" font-family="Times New Roman,serif" font-size="14.00">prompt_to_exit(text)</text>
</g>
<!-- views.appview.MatchView&#45;&gt;views.appview.View -->
<g id="edge1" class="edge">
<title>views.appview.MatchView&#45;&gt;views.appview.View</title>
<path fill="none" stroke="black" d="M3454.13,-339.73C3461.12,-404.15 3486.21,-544.11 3574.5,-610 3622.37,-645.72 3960.11,-668.26 4184.38,-679.46"/>
<polygon fill="none" stroke="black" points="4184.48,-682.97 4194.64,-679.97 4184.82,-675.98 4184.48,-682.97"/>
</g>
<!-- views.appview.PlayerView -->
<g id="node14" class="node">
<title>views.appview.PlayerView</title>
<polygon fill="aquamarine" stroke="aquamarine" points="3583,-263 3583,-347 3752,-347 3752,-263 3583,-263"/>
<text text-anchor="middle" x="3667.5" y="-331.8" font-family="Times New Roman,serif" font-size="14.00">views.appview.PlayerView</text>
<polyline fill="none" stroke="aquamarine" points="3583,-324 3752,-324 "/>
<text text-anchor="start" x="3591" y="-308.8" font-family="Times New Roman,serif" font-size="14.00">play_once : bool</text>
<polyline fill="none" stroke="aquamarine" points="3583,-301 3752,-301 "/>
<text text-anchor="start" x="3591" y="-285.8" font-family="Times New Roman,serif" font-size="14.00">prompt_for_new_ranking()</text>
<text text-anchor="start" x="3591" y="-270.8" font-family="Times New Roman,serif" font-size="14.00">prompt_for_player()</text>
</g>
<!-- views.appview.PlayerView&#45;&gt;views.appview.View -->
<g id="edge2" class="edge">
<title>views.appview.PlayerView&#45;&gt;views.appview.View</title>
<path fill="none" stroke="black" d="M3667.09,-347.22C3668.85,-413.77 3682.86,-544.08 3761.5,-610 3824.13,-662.5 4026.92,-680.27 4184.52,-685.98"/>
<polygon fill="none" stroke="black" points="4184.71,-689.49 4194.83,-686.34 4184.96,-682.49 4184.71,-689.49"/>
</g>
<!-- views.appview.PlayersReportView -->
<g id="node15" class="node">
<title>views.appview.PlayersReportView</title>
<polygon fill="aquamarine" stroke="aquamarine" points="3770.5,-270.5 3770.5,-339.5 4074.5,-339.5 4074.5,-270.5 3770.5,-270.5"/>
<text text-anchor="middle" x="3922.5" y="-324.3" font-family="Times New Roman,serif" font-size="14.00">views.appview.PlayersReportView</text>
<polyline fill="none" stroke="aquamarine" points="3770.5,-316.5 4074.5,-316.5 "/>
<text text-anchor="start" x="3778.5" y="-301.3" font-family="Times New Roman,serif" font-size="14.00">play_once : bool</text>
<polyline fill="none" stroke="aquamarine" points="3770.5,-293.5 4074.5,-293.5 "/>
<text text-anchor="start" x="3778.5" y="-278.3" font-family="Times New Roman,serif" font-size="14.00">print_players(player_set: List[Player], ask_confirm)</text>
</g>
<!-- views.appview.PlayersReportView&#45;&gt;views.appview.View -->
<g id="edge3" class="edge">
<title>views.appview.PlayersReportView&#45;&gt;views.appview.View</title>
<path fill="none" stroke="black" d="M3930.65,-339.69C3947.7,-402.77 3993.26,-538.77 4083.5,-610 4112.96,-633.25 4148.6,-649.63 4184.92,-661.16"/>
<polygon fill="none" stroke="black" points="4184.08,-664.56 4194.67,-664.13 4186.13,-657.87 4184.08,-664.56"/>
</g>
<!-- views.appview.PlayersView -->
<g id="node16" class="node">
<title>views.appview.PlayersView</title>
<polygon fill="aquamarine" stroke="aquamarine" points="4092.5,-270.5 4092.5,-339.5 4396.5,-339.5 4396.5,-270.5 4092.5,-270.5"/>
<text text-anchor="middle" x="4244.5" y="-324.3" font-family="Times New Roman,serif" font-size="14.00">views.appview.PlayersView</text>
<polyline fill="none" stroke="aquamarine" points="4092.5,-316.5 4396.5,-316.5 "/>
<text text-anchor="start" x="4100.5" y="-301.3" font-family="Times New Roman,serif" font-size="14.00">play_once : bool</text>
<polyline fill="none" stroke="aquamarine" points="4092.5,-293.5 4396.5,-293.5 "/>
<text text-anchor="start" x="4100.5" y="-278.3" font-family="Times New Roman,serif" font-size="14.00">print_players(player_set: List[Player], ask_confirm)</text>
</g>
<!-- views.appview.PlayersView&#45;&gt;views.appview.View -->
<g id="edge4" class="edge">
<title>views.appview.PlayersView&#45;&gt;views.appview.View</title>
<path fill="none" stroke="black" d="M4256.89,-339.57C4281.6,-406.52 4337.17,-557.07 4366.52,-636.57"/>
<polygon fill="none" stroke="black" points="4363.39,-638.2 4370.13,-646.37 4369.95,-635.77 4363.39,-638.2"/>
</g>
<!-- views.appview.RoundView -->
<g id="node17" class="node">
<title>views.appview.RoundView</title>
<polygon fill="aquamarine" stroke="aquamarine" points="4414.5,-270.5 4414.5,-339.5 4638.5,-339.5 4638.5,-270.5 4414.5,-270.5"/>
<text text-anchor="middle" x="4526.5" y="-324.3" font-family="Times New Roman,serif" font-size="14.00">views.appview.RoundView</text>
<polyline fill="none" stroke="aquamarine" points="4414.5,-316.5 4638.5,-316.5 "/>
<text text-anchor="start" x="4422.5" y="-301.3" font-family="Times New Roman,serif" font-size="14.00">play_once : bool</text>
<polyline fill="none" stroke="aquamarine" points="4414.5,-293.5 4638.5,-293.5 "/>
<text text-anchor="start" x="4422.5" y="-278.3" font-family="Times New Roman,serif" font-size="14.00">prompt_for_round_name(round_list)</text>
</g>
<!-- views.appview.RoundView&#45;&gt;views.appview.View -->
<g id="edge5" class="edge">
<title>views.appview.RoundView&#45;&gt;views.appview.View</title>
<path fill="none" stroke="black" d="M4514.11,-339.57C4489.4,-406.52 4433.83,-557.07 4404.48,-636.57"/>
<polygon fill="none" stroke="black" points="4401.05,-635.77 4400.87,-646.37 4407.61,-638.2 4401.05,-635.77"/>
</g>
<!-- views.appview.TournamentView -->
<g id="node18" class="node">
<title>views.appview.TournamentView</title>
<polygon fill="aquamarine" stroke="aquamarine" points="4656.5,-255.5 4656.5,-354.5 5024.5,-354.5 5024.5,-255.5 4656.5,-255.5"/>
<text text-anchor="middle" x="4840.5" y="-339.3" font-family="Times New Roman,serif" font-size="14.00">views.appview.TournamentView</text>
<polyline fill="none" stroke="aquamarine" points="4656.5,-331.5 5024.5,-331.5 "/>
<text text-anchor="start" x="4664.5" y="-316.3" font-family="Times New Roman,serif" font-size="14.00">play_once : bool</text>
<polyline fill="none" stroke="aquamarine" points="4656.5,-308.5 5024.5,-308.5 "/>
<text text-anchor="start" x="4664.5" y="-293.3" font-family="Times New Roman,serif" font-size="14.00">prompt_for_player_id(player_set: List[Player])</text>
<text text-anchor="start" x="4664.5" y="-278.3" font-family="Times New Roman,serif" font-size="14.00">prompt_for_tournament()</text>
<text text-anchor="start" x="4664.5" y="-263.3" font-family="Times New Roman,serif" font-size="14.00">prompt_for_tournament_id(tournament_set: List[Tournament])</text>
</g>
<!-- views.appview.TournamentView&#45;&gt;views.appview.View -->
<g id="edge6" class="edge">
<title>views.appview.TournamentView&#45;&gt;views.appview.View</title>
<path fill="none" stroke="black" d="M4822.39,-354.78C4794.9,-422.14 4736.27,-542.9 4647.5,-610 4628.87,-624.09 4607.71,-635.64 4585.7,-645.11"/>
<polygon fill="none" stroke="black" points="4584.11,-641.98 4576.21,-649.04 4586.79,-648.45 4584.11,-641.98"/>
</g>
<!-- views.appview.TournamentsReportView -->
<g id="node19" class="node">
<title>views.appview.TournamentsReportView</title>
<polygon fill="aquamarine" stroke="aquamarine" points="5042.5,-240.5 5042.5,-369.5 5436.5,-369.5 5436.5,-240.5 5042.5,-240.5"/>
<text text-anchor="middle" x="5239.5" y="-354.3" font-family="Times New Roman,serif" font-size="14.00">views.appview.TournamentsReportView</text>
<polyline fill="none" stroke="aquamarine" points="5042.5,-346.5 5436.5,-346.5 "/>
<text text-anchor="start" x="5050.5" y="-331.3" font-family="Times New Roman,serif" font-size="14.00">play_once : bool</text>
<polyline fill="none" stroke="aquamarine" points="5042.5,-323.5 5436.5,-323.5 "/>
<text text-anchor="start" x="5050.5" y="-308.3" font-family="Times New Roman,serif" font-size="14.00">print_tournaments(tournament_set: List[Tournament], ask_confirm)</text>
<text text-anchor="start" x="5050.5" y="-293.3" font-family="Times New Roman,serif" font-size="14.00">print_tournaments_matchs(round_set, player_set, ask_confirm)</text>
<text text-anchor="start" x="5050.5" y="-278.3" font-family="Times New Roman,serif" font-size="14.00">print_tournaments_players(player_set, ask_confirm)</text>
<text text-anchor="start" x="5050.5" y="-263.3" font-family="Times New Roman,serif" font-size="14.00">print_tournaments_rounds(round_set, ask_confirm)</text>
<text text-anchor="start" x="5050.5" y="-248.3" font-family="Times New Roman,serif" font-size="14.00">prompt_for_tournament_id(tournament_set: List[Tournament])</text>
</g>
<!-- views.appview.TournamentsReportView&#45;&gt;views.appview.View -->
<g id="edge7" class="edge">
<title>views.appview.TournamentsReportView&#45;&gt;views.appview.View</title>
<path fill="none" stroke="black" d="M5215.49,-369.62C5184.91,-441.08 5124.81,-554.33 5033.5,-610 4960.47,-654.52 4748.23,-673.66 4586.36,-681.87"/>
<polygon fill="none" stroke="black" points="4586.08,-678.38 4576.26,-682.37 4586.42,-685.37 4586.08,-678.38"/>
</g>
<!-- views.appview.TournamentsView -->
<g id="node20" class="node">
<title>views.appview.TournamentsView</title>
<polygon fill="aquamarine" stroke="aquamarine" points="5454.5,-270.5 5454.5,-339.5 5912.5,-339.5 5912.5,-270.5 5454.5,-270.5"/>
<text text-anchor="middle" x="5683.5" y="-324.3" font-family="Times New Roman,serif" font-size="14.00">views.appview.TournamentsView</text>
<polyline fill="none" stroke="aquamarine" points="5454.5,-316.5 5912.5,-316.5 "/>
<text text-anchor="start" x="5462.5" y="-301.3" font-family="Times New Roman,serif" font-size="14.00">play_once : bool</text>
<polyline fill="none" stroke="aquamarine" points="5454.5,-293.5 5912.5,-293.5 "/>
<text text-anchor="start" x="5462.5" y="-278.3" font-family="Times New Roman,serif" font-size="14.00">print_tournaments(tournament_set: List[Tournament], player_set, ask_confirm)</text>
</g>
<!-- views.appview.TournamentsView&#45;&gt;views.appview.View -->
<g id="edge8" class="edge">
<title>views.appview.TournamentsView&#45;&gt;views.appview.View</title>
<path fill="none" stroke="black" d="M5668.81,-339.58C5638.15,-405.04 5560.53,-548.64 5445.5,-610 5371.84,-649.29 4872.56,-672.01 4586.26,-681.95"/>
<polygon fill="none" stroke="black" points="4586.04,-678.46 4576.17,-682.3 4586.28,-685.45 4586.04,-678.46"/>
</g>
<!-- views.menuview.MenuView -->
<g id="node22" class="node">
<title>views.menuview.MenuView</title>
<polygon fill="aquamarine" stroke="aquamarine" points="5931,-255.5 5931,-354.5 6102,-354.5 6102,-255.5 5931,-255.5"/>
<text text-anchor="middle" x="6016.5" y="-339.3" font-family="Times New Roman,serif" font-size="14.00">views.menuview.MenuView</text>
<polyline fill="none" stroke="aquamarine" points="5931,-331.5 6102,-331.5 "/>
<text text-anchor="start" x="5939" y="-316.3" font-family="Times New Roman,serif" font-size="14.00">menu</text>
<polyline fill="none" stroke="aquamarine" points="5931,-308.5 6102,-308.5 "/>
<text text-anchor="start" x="5939" y="-293.3" font-family="Times New Roman,serif" font-size="14.00">get_user_input()</text>
<text text-anchor="start" x="5939" y="-278.3" font-family="Times New Roman,serif" font-size="14.00">good_bye()</text>
<text text-anchor="start" x="5939" y="-263.3" font-family="Times New Roman,serif" font-size="14.00">show_menu()</text>
</g>
</g>
</svg>
