<?xml version="1.0" encoding="UTF-8" standalone="no"?>
<!-- Generated by graphviz version 2.50.0 (20211204.2007)
 -->

<!-- Title: packages_p4&#45;chess Pages: 1 -->

<svg
   width="404pt"
   height="260pt"
   viewBox="0.00 0.00 404.00 260.00"
   version="1.1"
   id="svg112"
   sodipodi:docname="packages_p4-chess.svg"
   inkscape:version="1.1 (c68e22c387, 2021-05-23)"
   xmlns:inkscape="http://www.inkscape.org/namespaces/inkscape"
   xmlns:sodipodi="http://sodipodi.sourceforge.net/DTD/sodipodi-0.dtd"
   xmlns="http://www.w3.org/2000/svg"
   xmlns:svg="http://www.w3.org/2000/svg">
  <defs
     id="defs116" />
  <sodipodi:namedview
     id="namedview114"
     pagecolor="#ffffff"
     bordercolor="#666666"
     borderopacity="1.0"
     inkscape:pageshadow="2"
     inkscape:pageopacity="0.0"
     inkscape:pagecheckerboard="0"
     inkscape:document-units="pt"
     showgrid="false"
     inkscape:zoom="2.0662129"
     inkscape:cx="269.33333"
     inkscape:cy="173.50584"
     inkscape:window-width="1920"
     inkscape:window-height="1027"
     inkscape:window-x="-8"
     inkscape:window-y="-8"
     inkscape:window-maximized="1"
     inkscape:current-layer="graph0" />
  <g
     id="graph0"
     class="graph"
     transform="scale(1 1) rotate(0) translate(4 256)">
    <title
       id="title2">packages_p4-chess</title>
    <polygon
       fill="white"
       stroke="transparent"
       points="-4,4 -4,-256 400,-256 400,4 -4,4"
       id="polygon4" />
    <!-- controllers -->
    <g
       id="node1"
       class="node"
       transform="matrix(0.41137903,0,0,0.41137903,-0.29431048,0.29431048)">
      <title
         id="title6">controllers</title>
      <polygon
         fill="#f0f8ff"
         stroke="#f0f8ff"
         points="0,-36 0,0 76,0 76,-36 "
         id="polygon8" />
      <text
         text-anchor="middle"
         x="38"
         y="-14.3"
         font-family="'Times New Roman', serif"
         font-size="14px"
         id="text10">controllers</text>
    </g>
    <!-- controllers.appcontroller -->
    <g
       id="node2"
       class="node">
      <title
         id="title13">controllers.appcontroller</title>
      <polygon
         fill="aliceblue"
         stroke="aliceblue"
         points="248,-36 94,-36 94,0 248,0 248,-36"
         id="polygon15" />
      <text
         text-anchor="middle"
         x="171"
         y="-14.3"
         font-family="Times New Roman,serif"
         font-size="14.00"
         id="text17">controllers.appcontroller</text>
    </g>
    <!-- models.player -->
    <g
       id="node4"
       class="node">
      <title
         id="title20">models.player</title>
      <polygon
         fill="antiquewhite"
         stroke="antiquewhite"
         points="206.5,-252 111.5,-252 111.5,-216 206.5,-216 206.5,-252"
         id="polygon22" />
      <text
         text-anchor="middle"
         x="159"
         y="-230.3"
         font-family="Times New Roman,serif"
         font-size="14.00"
         id="text24">models.player</text>
    </g>
    <!-- controllers.appcontroller&#45;&gt;models.player -->
    <g
       id="edge1"
       class="edge">
      <title
         id="title27">controllers.appcontroller-&gt;models.player</title>
      <path
         fill="none"
         stroke="black"
         d="M154.59,-36.29C134.35,-58.94 101.02,-100.86 88,-144 83.38,-159.32 80.83,-165.7 88,-180 94.1,-192.16 104.46,-202.25 115.41,-210.24"
         id="path29" />
      <polygon
         fill="black"
         stroke="black"
         points="123.83,-215.94 113.03,-214.06 119.69,-213.14 115.55,-210.34 115.55,-210.34 115.55,-210.34 119.69,-213.14 118.07,-206.61 123.83,-215.94 123.83,-215.94"
         id="polygon31" />
    </g>
    <!-- models.tournament -->
    <g
       id="node5"
       class="node">
      <title
         id="title34">models.tournament</title>
      <polygon
         fill="antiquewhite"
         stroke="antiquewhite"
         points="220.5,-180 97.5,-180 97.5,-144 220.5,-144 220.5,-180"
         id="polygon36" />
      <text
         text-anchor="middle"
         x="159"
         y="-158.3"
         font-family="Times New Roman,serif"
         font-size="14.00"
         id="text38">models.tournament</text>
    </g>
    <!-- controllers.appcontroller&#45;&gt;models.tournament -->
    <g
       id="edge2"
       class="edge">
      <title
         id="title41">controllers.appcontroller-&gt;models.tournament</title>
      <path
         fill="none"
         stroke="black"
         d="M163.11,-36.25C158.89,-46.42 154.14,-59.67 152,-72 148.44,-92.49 150.53,-115.94 153.33,-133.63"
         id="path43" />
      <polygon
         fill="black"
         stroke="black"
         points="155.12,-143.82 148.96,-134.75 154.26,-138.89 153.39,-133.97 153.39,-133.97 153.39,-133.97 154.26,-138.89 157.82,-133.19 155.12,-143.82 155.12,-143.82"
         id="polygon45" />
    </g>
    <!-- views.appview -->
    <g
       id="node7"
       class="node">
      <title
         id="title48">views.appview</title>
      <polygon
         fill="aquamarine"
         stroke="aquamarine"
         points="259,-108 161,-108 161,-72 259,-72 259,-108"
         id="polygon50" />
      <text
         text-anchor="middle"
         x="210"
         y="-86.3"
         font-family="Times New Roman,serif"
         font-size="14.00"
         id="text52">views.appview</text>
    </g>
    <!-- controllers.appcontroller&#45;&gt;views.appview -->
    <g
       id="edge3"
       class="edge">
      <title
         id="title55">controllers.appcontroller-&gt;views.appview</title>
      <path
         fill="none"
         stroke="black"
         d="M180.64,-36.3C185.13,-44.36 190.56,-54.11 195.52,-63.02"
         id="path57" />
      <polygon
         fill="black"
         stroke="black"
         points="200.47,-71.9 191.67,-65.35 198.04,-67.53 195.6,-63.16 195.6,-63.16 195.6,-63.16 198.04,-67.53 199.53,-60.97 200.47,-71.9 200.47,-71.9"
         id="polygon59" />
    </g>
    <!-- views.menuview -->
    <g
       id="node8"
       class="node">
      <title
         id="title62">views.menuview</title>
      <polygon
         fill="aquamarine"
         stroke="aquamarine"
         points="384.5,-108 277.5,-108 277.5,-72 384.5,-72 384.5,-108"
         id="polygon64" />
      <text
         text-anchor="middle"
         x="331"
         y="-86.3"
         font-family="Times New Roman,serif"
         font-size="14.00"
         id="text66">views.menuview</text>
    </g>
    <!-- controllers.appcontroller&#45;&gt;views.menuview -->
    <g
       id="edge4"
       class="edge">
      <title
         id="title69">controllers.appcontroller-&gt;views.menuview</title>
      <path
         fill="none"
         stroke="black"
         d="M210.14,-36.12C232.01,-45.69 259.46,-57.7 282.66,-67.85"
         id="path71" />
      <polygon
         fill="black"
         stroke="black"
         points="291.99,-71.93 281.02,-72.05 287.41,-69.93 282.83,-67.92 282.83,-67.92 282.83,-67.92 287.41,-69.93 284.63,-63.8 291.99,-71.93 291.99,-71.93"
         id="polygon73" />
    </g>
    <!-- models -->
    <g
       id="node3"
       class="node"
       transform="matrix(0.42118938,0,0,0.42118938,-112.46771,-17.615418)">
      <title
         id="title76">models</title>
      <polygon
         fill="#faebd7"
         stroke="#faebd7"
         points="323.5,-36 266.5,-36 266.5,0 323.5,0 "
         id="polygon78" />
      <text
         text-anchor="middle"
         x="295"
         y="-14.3"
         font-family="'Times New Roman', serif"
         font-size="14px"
         id="text80">models</text>
    </g>
    <!-- models.tournament&#45;&gt;models.player -->
    <g
       id="edge5"
       class="edge">
      <title
         id="title83">models.tournament-&gt;models.player</title>
      <path
         fill="none"
         stroke="black"
         d="M159,-180.3C159,-188.02 159,-197.29 159,-205.89"
         id="path85" />
      <polygon
         fill="black"
         stroke="black"
         points="159,-215.9 154.5,-205.9 159,-210.9 159,-205.9 159,-205.9 159,-205.9 159,-210.9 163.5,-205.9 159,-215.9 159,-215.9"
         id="polygon87" />
    </g>
    <!-- views -->
    <g
       id="node6"
       class="node"
       transform="matrix(0.46043078,0,0,0.46043078,-157.7151,-36.369927)">
      <title
         id="title90">views</title>
      <polygon
         fill="#7fffd4"
         stroke="#7fffd4"
         points="396,0 396,-36 342,-36 342,0 "
         id="polygon92" />
      <text
         text-anchor="middle"
         x="369"
         y="-14.3"
         font-family="'Times New Roman', serif"
         font-size="14px"
         id="text94">views</text>
    </g>
    <!-- views.appview&#45;&gt;models.player -->
    <g
       id="edge6"
       class="edge">
      <title
         id="title97">views.appview-&gt;models.player</title>
      <path
         fill="none"
         stroke="black"
         d="M220.07,-108.23C229.49,-126.8 240.54,-156.8 229,-180 223,-192.07 212.79,-202.13 201.99,-210.12"
         id="path99" />
      <polygon
         fill="black"
         stroke="black"
         points="193.68,-215.83 199.38,-206.46 197.8,-213 201.92,-210.17 201.92,-210.17 201.92,-210.17 197.8,-213 204.47,-213.88 193.68,-215.83 193.68,-215.83"
         id="polygon101" />
    </g>
    <!-- views.appview&#45;&gt;models.tournament -->
    <g
       id="edge7"
       class="edge">
      <title
         id="title104">views.appview-&gt;models.tournament</title>
      <path
         fill="none"
         stroke="black"
         d="M197.39,-108.3C191.4,-116.53 184.12,-126.52 177.52,-135.58"
         id="path106" />
      <polygon
         fill="black"
         stroke="black"
         points="171.46,-143.9 173.71,-133.16 174.41,-139.85 177.35,-135.81 177.35,-135.81 177.35,-135.81 174.41,-139.85 180.99,-138.46 171.46,-143.9 171.46,-143.9"
         id="polygon108" />
    </g>
  </g>
</svg>
